<mxfile host="app.diagrams.net" modified="2022-10-04T04:34:20.386Z" agent="5.0 (Windows NT 10.0; Win64; x64) AppleWebKit/537.36 (KHTML, like Gecko) Chrome/105.0.0.0 Safari/537.36 Edg/105.0.1343.53" etag="4F5IH3ZfFq8dVpJ6VEaV" version="20.3.7" type="github">
  <diagram id="S9_TJKIUMJxyRnuEq-Zb" name="Page-1">
    <mxGraphModel dx="1422" dy="833" grid="1" gridSize="10" guides="1" tooltips="1" connect="1" arrows="1" fold="1" page="1" pageScale="1" pageWidth="850" pageHeight="1100" math="0" shadow="0">
      <root>
        <mxCell id="0" />
        <mxCell id="1" parent="0" />
        <mxCell id="OkPrBNgg0y_qIhAdAtmx-2" value="" style="edgeStyle=orthogonalEdgeStyle;rounded=0;orthogonalLoop=1;jettySize=auto;html=1;" edge="1" parent="1" source="OkPrBNgg0y_qIhAdAtmx-3" target="OkPrBNgg0y_qIhAdAtmx-5">
          <mxGeometry relative="1" as="geometry" />
        </mxCell>
        <mxCell id="OkPrBNgg0y_qIhAdAtmx-3" value="Access Website" style="whiteSpace=wrap;html=1;fillColor=#ffe6cc;strokeColor=#d79b00;" vertex="1" parent="1">
          <mxGeometry x="640" y="634" width="120" height="60" as="geometry" />
        </mxCell>
        <mxCell id="OkPrBNgg0y_qIhAdAtmx-4" value="" style="edgeStyle=orthogonalEdgeStyle;rounded=0;orthogonalLoop=1;jettySize=auto;html=1;endArrow=classic;endFill=1;" edge="1" parent="1" source="OkPrBNgg0y_qIhAdAtmx-5" target="OkPrBNgg0y_qIhAdAtmx-7">
          <mxGeometry relative="1" as="geometry" />
        </mxCell>
        <mxCell id="OkPrBNgg0y_qIhAdAtmx-5" value="Enter &lt;b&gt;Username&lt;/b&gt;&amp;nbsp;and &lt;b&gt;Password&lt;/b&gt;" style="whiteSpace=wrap;html=1;fillColor=#ffe6cc;strokeColor=#d79b00;" vertex="1" parent="1">
          <mxGeometry x="840" y="634" width="120" height="60" as="geometry" />
        </mxCell>
        <mxCell id="OkPrBNgg0y_qIhAdAtmx-6" value="" style="edgeStyle=orthogonalEdgeStyle;rounded=0;orthogonalLoop=1;jettySize=auto;html=1;endArrow=classic;endFill=1;" edge="1" parent="1" source="OkPrBNgg0y_qIhAdAtmx-7" target="OkPrBNgg0y_qIhAdAtmx-10">
          <mxGeometry relative="1" as="geometry" />
        </mxCell>
        <mxCell id="OkPrBNgg0y_qIhAdAtmx-7" value="Click &lt;b&gt;Login&lt;/b&gt;" style="whiteSpace=wrap;html=1;fillColor=#ffe6cc;strokeColor=#d79b00;" vertex="1" parent="1">
          <mxGeometry x="1040" y="634" width="120" height="60" as="geometry" />
        </mxCell>
        <mxCell id="OkPrBNgg0y_qIhAdAtmx-17" value="False" style="edgeStyle=orthogonalEdgeStyle;rounded=0;orthogonalLoop=1;jettySize=auto;html=1;" edge="1" parent="1" source="OkPrBNgg0y_qIhAdAtmx-10" target="OkPrBNgg0y_qIhAdAtmx-16">
          <mxGeometry relative="1" as="geometry" />
        </mxCell>
        <mxCell id="OkPrBNgg0y_qIhAdAtmx-25" value="True" style="edgeStyle=orthogonalEdgeStyle;rounded=1;orthogonalLoop=1;jettySize=auto;html=1;" edge="1" parent="1" source="OkPrBNgg0y_qIhAdAtmx-10" target="OkPrBNgg0y_qIhAdAtmx-24">
          <mxGeometry relative="1" as="geometry" />
        </mxCell>
        <mxCell id="OkPrBNgg0y_qIhAdAtmx-10" value="Success?" style="rhombus;whiteSpace=wrap;html=1;fillColor=#fff2cc;strokeColor=#d6b656;" vertex="1" parent="1">
          <mxGeometry x="1230" y="624" width="80" height="80" as="geometry" />
        </mxCell>
        <mxCell id="OkPrBNgg0y_qIhAdAtmx-19" value="True" style="edgeStyle=orthogonalEdgeStyle;rounded=0;orthogonalLoop=1;jettySize=auto;html=1;" edge="1" parent="1" source="OkPrBNgg0y_qIhAdAtmx-16" target="OkPrBNgg0y_qIhAdAtmx-18">
          <mxGeometry relative="1" as="geometry" />
        </mxCell>
        <mxCell id="OkPrBNgg0y_qIhAdAtmx-22" value="False" style="edgeStyle=orthogonalEdgeStyle;rounded=1;orthogonalLoop=1;jettySize=auto;html=1;" edge="1" parent="1" source="OkPrBNgg0y_qIhAdAtmx-16" target="OkPrBNgg0y_qIhAdAtmx-21">
          <mxGeometry relative="1" as="geometry" />
        </mxCell>
        <mxCell id="OkPrBNgg0y_qIhAdAtmx-16" value="Error Exists?" style="rhombus;whiteSpace=wrap;html=1;fillColor=#fff2cc;strokeColor=#d6b656;" vertex="1" parent="1">
          <mxGeometry x="1230" y="784" width="80" height="80" as="geometry" />
        </mxCell>
        <mxCell id="OkPrBNgg0y_qIhAdAtmx-23" value="False" style="edgeStyle=orthogonalEdgeStyle;rounded=1;orthogonalLoop=1;jettySize=auto;html=1;exitX=0.5;exitY=1;exitDx=0;exitDy=0;entryX=0.5;entryY=1;entryDx=0;entryDy=0;" edge="1" parent="1" source="OkPrBNgg0y_qIhAdAtmx-18" target="OkPrBNgg0y_qIhAdAtmx-21">
          <mxGeometry x="-0.9162" relative="1" as="geometry">
            <Array as="points">
              <mxPoint x="1420" y="900" />
              <mxPoint x="1340" y="900" />
              <mxPoint x="1340" y="1000" />
              <mxPoint x="1275" y="1000" />
            </Array>
            <mxPoint as="offset" />
          </mxGeometry>
        </mxCell>
        <mxCell id="OkPrBNgg0y_qIhAdAtmx-29" style="edgeStyle=orthogonalEdgeStyle;rounded=1;orthogonalLoop=1;jettySize=auto;html=1;exitX=1;exitY=0.5;exitDx=0;exitDy=0;" edge="1" parent="1" source="OkPrBNgg0y_qIhAdAtmx-18" target="OkPrBNgg0y_qIhAdAtmx-27">
          <mxGeometry relative="1" as="geometry" />
        </mxCell>
        <mxCell id="OkPrBNgg0y_qIhAdAtmx-18" value="&amp;lt; 3 Retries?" style="rhombus;whiteSpace=wrap;html=1;fillColor=#fff2cc;strokeColor=#d6b656;" vertex="1" parent="1">
          <mxGeometry x="1380" y="784" width="80" height="80" as="geometry" />
        </mxCell>
        <mxCell id="OkPrBNgg0y_qIhAdAtmx-21" value="SE" style="ellipse;whiteSpace=wrap;html=1;fillColor=#f8cecc;strokeColor=#b85450;" vertex="1" parent="1">
          <mxGeometry x="1245" y="920" width="60" height="60" as="geometry" />
        </mxCell>
        <mxCell id="OkPrBNgg0y_qIhAdAtmx-24" value="Continue..." style="whiteSpace=wrap;html=1;fillColor=#ffe6cc;strokeColor=#d79b00;" vertex="1" parent="1">
          <mxGeometry x="1370" y="634" width="120" height="60" as="geometry" />
        </mxCell>
        <mxCell id="OkPrBNgg0y_qIhAdAtmx-26" value="&quot;Error has occured&quot;" style="text;html=1;align=center;verticalAlign=middle;resizable=0;points=[];autosize=1;strokeColor=none;fillColor=none;" vertex="1" parent="1">
          <mxGeometry x="1210" y="864" width="130" height="30" as="geometry" />
        </mxCell>
        <mxCell id="OkPrBNgg0y_qIhAdAtmx-30" style="edgeStyle=orthogonalEdgeStyle;rounded=1;orthogonalLoop=1;jettySize=auto;html=1;exitX=1;exitY=0.5;exitDx=0;exitDy=0;entryX=0;entryY=0.5;entryDx=0;entryDy=0;" edge="1" parent="1" source="OkPrBNgg0y_qIhAdAtmx-27" target="OkPrBNgg0y_qIhAdAtmx-5">
          <mxGeometry relative="1" as="geometry">
            <Array as="points">
              <mxPoint x="1630" y="824" />
              <mxPoint x="1630" y="1020" />
              <mxPoint x="820" y="1020" />
              <mxPoint x="820" y="664" />
            </Array>
          </mxGeometry>
        </mxCell>
        <mxCell id="OkPrBNgg0y_qIhAdAtmx-27" value="Click &lt;b&gt;Login&lt;/b&gt;" style="whiteSpace=wrap;html=1;fillColor=#ffe6cc;strokeColor=#d79b00;" vertex="1" parent="1">
          <mxGeometry x="1490" y="794" width="120" height="60" as="geometry" />
        </mxCell>
      </root>
    </mxGraphModel>
  </diagram>
</mxfile>
